<svg width="20" height="16" viewBox="0 0 20 16" fill="none" xmlns="http://www.w3.org/2000/svg">
<path fill-rule="evenodd" clip-rule="evenodd" d="M17.1903 6.78057C16.6077 3.38488 13.6335 0.799999 10.0521 0.799999C6.45712 0.799999 3.47399 3.40447 2.90734 6.81913C2.73933 6.74512 2.5534 6.704 2.35781 6.704C1.60791 6.704 1 7.30841 1 8.054C1 8.79958 1.60791 9.404 2.35781 9.404C2.56016 9.404 2.75218 9.35999 2.9247 9.28107C3.53254 12.6464 6.49236 15.2 10.0521 15.2C13.5977 15.2 16.5482 12.6665 17.1721 9.32091C17.3186 9.37465 17.4769 9.404 17.6422 9.404C18.3921 9.404 19 8.79958 19 8.054C19 7.30841 18.3921 6.704 17.6422 6.704C17.4838 6.704 17.3317 6.73098 17.1903 6.78057V6.78057Z" stroke="#646464" stroke-linecap="round" stroke-linejoin="round"/>
<path d="M8.114 6.9634C8.114 6.40926 7.66809 5.96005 7.11804 5.96005C6.56798 5.96005 6.12207 6.40926 6.12207 6.9634" stroke="#646464" stroke-linecap="round" stroke-linejoin="round"/>
<path d="M13.8053 6.9634C13.8053 6.40926 13.3594 5.96005 12.8093 5.96005C12.2593 5.96005 11.8134 6.40926 11.8134 6.9634" stroke="#646464" stroke-linecap="round" stroke-linejoin="round"/>
<path fill-rule="evenodd" clip-rule="evenodd" d="M7.9718 9.40009H11.9557C11.9557 10.5083 11.0638 11.4068 9.96373 11.4068C8.86362 11.4068 7.9718 10.5083 7.9718 9.40009Z" stroke="#646464" stroke-linecap="round" stroke-linejoin="round"/>
</svg>
