<svg width="20" height="18" viewBox="0 0 20 18" fill="none" xmlns="http://www.w3.org/2000/svg">
<rect width="18" height="18" transform="translate(1)" fill="white"/>
<path fill-rule="evenodd" clip-rule="evenodd" d="M2.90734 8.33934C2.73933 8.26532 2.5534 8.22421 2.35781 8.22421C1.60791 8.22421 1 8.82862 1 9.57421C1 10.3198 1.60791 10.9242 2.35781 10.9242C2.56016 10.9242 2.75218 10.8802 2.9247 10.8013C3.53254 14.1666 6.49236 16.7202 10.0521 16.7202C13.5977 16.7202 16.5482 14.1867 17.1721 10.8411C17.3186 10.8949 17.4769 10.9242 17.6422 10.9242C18.3921 10.9242 19 10.3198 19 9.57421C19 8.82862 18.3921 8.22421 17.6422 8.22421C17.4838 8.22421 17.3317 8.25119 17.1903 8.30078C16.8893 6.54625 15.9497 5.00818 14.6179 3.93129C14.411 6.84519 12.2788 5.34669 11.0776 4.25288C11.2096 4.03756 11.2857 3.78456 11.2857 3.51389C11.2857 3.20529 11.1868 2.91966 11.0188 2.68665C11.1099 2.60267 11.2068 2.51575 11.3084 2.42816C10.9003 2.3572 10.4805 2.32021 10.0521 2.32021C9.57522 2.32021 9.10913 2.36603 8.65802 2.45349C8.70284 2.49244 8.74673 2.5312 8.78957 2.5696C8.565 2.82064 8.42857 3.15141 8.42857 3.51389C8.42857 3.83826 8.53782 4.13724 8.72172 4.37641C7.52159 5.4351 5.58098 6.6962 5.33003 4.06127C4.07154 5.13838 3.18961 6.63833 2.90734 8.33934Z" stroke="#646464" stroke-linecap="round" stroke-linejoin="round"/>
<path d="M8.28576 8.44022C8.28576 7.89084 7.83805 7.44548 7.28577 7.44548C6.73348 7.44548 6.28577 7.89084 6.28577 8.44022" stroke="#646464" stroke-linecap="round" stroke-linejoin="round"/>
<path d="M13.7142 8.44022C13.7142 7.89084 13.2665 7.44548 12.7142 7.44548C12.1619 7.44548 11.7142 7.89084 11.7142 8.44022" stroke="#646464" stroke-linecap="round" stroke-linejoin="round"/>
<path d="M12 10.856C12 11.9548 11.1046 12.8455 10 12.8455C8.89543 12.8455 8 11.9548 8 10.856" stroke="#646464" stroke-linecap="round" stroke-linejoin="round"/>
<ellipse cx="9.85716" cy="3.5139" rx="1.42857" ry="1.42105" stroke="#646464" stroke-linecap="round" stroke-linejoin="round"/>
<path d="M11.3572 3.5139H12.9286" stroke="#646464" stroke-linecap="round" stroke-linejoin="round"/>
<path d="M6.71423 3.5139H8.28566" stroke="#646464" stroke-linecap="round" stroke-linejoin="round"/>
<path fill-rule="evenodd" clip-rule="evenodd" d="M11.0776 4.25288C12.3409 5.4033 14.6341 7.00136 14.6341 3.44284C14.6341 -0.171566 12.2683 1.53386 11.0188 2.68666C11.1868 2.91967 11.2857 3.20529 11.2857 3.5139C11.2857 3.78457 11.2096 4.03756 11.0776 4.25288V4.25288Z" stroke="#646464" stroke-linecap="round" stroke-linejoin="round"/>
<path fill-rule="evenodd" clip-rule="evenodd" d="M8.7217 4.37642C7.43676 5.50992 5.30298 6.87546 5.30298 3.44284C5.30298 -0.0509299 7.51347 1.42595 8.78955 2.5696C8.56498 2.82064 8.42855 3.15142 8.42855 3.5139C8.42855 3.83826 8.5378 4.13724 8.7217 4.37642V4.37642Z" stroke="#646464" stroke-linecap="round" stroke-linejoin="round"/>
</svg>
